<svg width="176" height="45" viewBox="0 0 176 45" fill="none" xmlns="http://www.w3.org/2000/svg">
<path d="M56.25 22.9688V43.125H51.75V19.7188H55.9219L56.25 22.9688ZM66.9531 27.9844V28.3125C66.9531 29.5417 66.8073 30.6823 66.5156 31.7344C66.2344 32.7865 65.8177 33.7031 65.2656 34.4844C64.7135 35.2552 64.026 35.8594 63.2031 36.2969C62.3906 36.724 61.4531 36.9375 60.3906 36.9375C59.3594 36.9375 58.4635 36.7292 57.7031 36.3125C56.9427 35.8958 56.3021 35.3125 55.7812 34.5625C55.2708 33.8021 54.8594 32.9219 54.5469 31.9219C54.2344 30.9219 53.9948 29.849 53.8281 28.7031V27.8438C53.9948 26.6146 54.2344 25.4896 54.5469 24.4688C54.8594 23.4375 55.2708 22.5469 55.7812 21.7969C56.3021 21.0365 56.9375 20.4479 57.6875 20.0312C58.4479 19.6146 59.3385 19.4062 60.3594 19.4062C61.4323 19.4062 62.375 19.6094 63.1875 20.0156C64.0104 20.4219 64.6979 21.0052 65.25 21.7656C65.8125 22.526 66.2344 23.4323 66.5156 24.4844C66.8073 25.5365 66.9531 26.7031 66.9531 27.9844ZM62.4375 28.3125V27.9844C62.4375 27.2656 62.375 26.6042 62.25 26C62.1354 25.3854 61.9479 24.849 61.6875 24.3906C61.4375 23.9323 61.1042 23.5781 60.6875 23.3281C60.2812 23.0677 59.7865 22.9375 59.2031 22.9375C58.5885 22.9375 58.0625 23.0365 57.625 23.2344C57.1979 23.4323 56.849 23.7188 56.5781 24.0938C56.3073 24.4688 56.1042 24.9167 55.9688 25.4375C55.8333 25.9583 55.75 26.5469 55.7188 27.2031V29.375C55.7708 30.1458 55.9167 30.8385 56.1562 31.4531C56.3958 32.0573 56.7656 32.5365 57.2656 32.8906C57.7656 33.2448 58.4219 33.4219 59.2344 33.4219C59.8281 33.4219 60.3281 33.2917 60.7344 33.0312C61.1406 32.7604 61.4688 32.3906 61.7188 31.9219C61.9792 31.4531 62.1615 30.9115 62.2656 30.2969C62.3802 29.6823 62.4375 29.0208 62.4375 28.3125ZM69.0312 28.3438V28.0156C69.0312 26.776 69.2083 25.6354 69.5625 24.5938C69.9167 23.5417 70.4323 22.6302 71.1094 21.8594C71.7865 21.0885 72.6198 20.4896 73.6094 20.0625C74.599 19.625 75.7344 19.4062 77.0156 19.4062C78.2969 19.4062 79.4375 19.625 80.4375 20.0625C81.4375 20.4896 82.276 21.0885 82.9531 21.8594C83.6406 22.6302 84.1615 23.5417 84.5156 24.5938C84.8698 25.6354 85.0469 26.776 85.0469 28.0156V28.3438C85.0469 29.5729 84.8698 30.7135 84.5156 31.7656C84.1615 32.8073 83.6406 33.7188 82.9531 34.5C82.276 35.2708 81.4427 35.8698 80.4531 36.2969C79.4635 36.724 78.3281 36.9375 77.0469 36.9375C75.7656 36.9375 74.625 36.724 73.625 36.2969C72.6354 35.8698 71.7969 35.2708 71.1094 34.5C70.4323 33.7188 69.9167 32.8073 69.5625 31.7656C69.2083 30.7135 69.0312 29.5729 69.0312 28.3438ZM73.5312 28.0156V28.3438C73.5312 29.0521 73.5938 29.7135 73.7188 30.3281C73.8438 30.9427 74.0417 31.4844 74.3125 31.9531C74.5938 32.4115 74.9583 32.7708 75.4062 33.0312C75.8542 33.2917 76.401 33.4219 77.0469 33.4219C77.6719 33.4219 78.2083 33.2917 78.6562 33.0312C79.1042 32.7708 79.4635 32.4115 79.7344 31.9531C80.0052 31.4844 80.2031 30.9427 80.3281 30.3281C80.4635 29.7135 80.5312 29.0521 80.5312 28.3438V28.0156C80.5312 27.3281 80.4635 26.6823 80.3281 26.0781C80.2031 25.4635 80 24.9219 79.7188 24.4531C79.4479 23.974 79.0885 23.599 78.6406 23.3281C78.1927 23.0573 77.651 22.9219 77.0156 22.9219C76.3802 22.9219 75.8385 23.0573 75.3906 23.3281C74.9531 23.599 74.5938 23.974 74.3125 24.4531C74.0417 24.9219 73.8438 25.4635 73.7188 26.0781C73.5938 26.6823 73.5312 27.3281 73.5312 28.0156ZM97.7969 32.9375V12.625H102.328V36.625H98.25L97.7969 32.9375ZM87.1094 28.375V28.0469C87.1094 26.7552 87.2552 25.5833 87.5469 24.5312C87.8385 23.4688 88.2656 22.5573 88.8281 21.7969C89.3906 21.0365 90.0833 20.4479 90.9062 20.0312C91.7292 19.6146 92.6667 19.4062 93.7188 19.4062C94.7083 19.4062 95.5729 19.6146 96.3125 20.0312C97.0625 20.4479 97.6979 21.0417 98.2188 21.8125C98.75 22.5729 99.1771 23.474 99.5 24.5156C99.8229 25.5469 100.057 26.6771 100.203 27.9062V28.625C100.057 29.8021 99.8229 30.8958 99.5 31.9062C99.1771 32.9167 98.75 33.8021 98.2188 34.5625C97.6979 35.3125 97.0625 35.8958 96.3125 36.3125C95.5625 36.7292 94.6875 36.9375 93.6875 36.9375C92.6354 36.9375 91.6979 36.724 90.875 36.2969C90.0625 35.8698 89.375 35.2708 88.8125 34.5C88.2604 33.7292 87.8385 32.8229 87.5469 31.7812C87.2552 30.7396 87.1094 29.6042 87.1094 28.375ZM91.6094 28.0469V28.375C91.6094 29.0729 91.6615 29.724 91.7656 30.3281C91.8802 30.9323 92.0625 31.4688 92.3125 31.9375C92.5729 32.3958 92.9062 32.7552 93.3125 33.0156C93.7292 33.2656 94.2344 33.3906 94.8281 33.3906C95.599 33.3906 96.2344 33.2188 96.7344 32.875C97.2344 32.5208 97.6146 32.0365 97.875 31.4219C98.1458 30.8073 98.3021 30.099 98.3438 29.2969V27.25C98.3125 26.5938 98.2188 26.0052 98.0625 25.4844C97.9167 24.9531 97.6979 24.5 97.4062 24.125C97.125 23.75 96.7708 23.4583 96.3438 23.25C95.9271 23.0417 95.4323 22.9375 94.8594 22.9375C94.276 22.9375 93.776 23.0729 93.3594 23.3438C92.9427 23.6042 92.6042 23.9635 92.3438 24.4219C92.0938 24.8802 91.9062 25.4219 91.7812 26.0469C91.6667 26.6615 91.6094 27.3281 91.6094 28.0469ZM114.984 31.9531C114.984 31.6302 114.891 31.3385 114.703 31.0781C114.516 30.8177 114.167 30.5781 113.656 30.3594C113.156 30.1302 112.432 29.9219 111.484 29.7344C110.63 29.5469 109.833 29.3125 109.094 29.0312C108.365 28.7396 107.729 28.3906 107.188 27.9844C106.656 27.5781 106.24 27.099 105.938 26.5469C105.635 25.9844 105.484 25.3438 105.484 24.625C105.484 23.9167 105.635 23.25 105.938 22.625C106.25 22 106.693 21.4479 107.266 20.9688C107.849 20.4792 108.557 20.099 109.391 19.8281C110.234 19.5469 111.182 19.4062 112.234 19.4062C113.703 19.4062 114.964 19.6406 116.016 20.1094C117.078 20.5781 117.891 21.224 118.453 22.0469C119.026 22.8594 119.312 23.7865 119.312 24.8281H114.812C114.812 24.3906 114.719 24 114.531 23.6562C114.354 23.3021 114.073 23.026 113.688 22.8281C113.312 22.6198 112.823 22.5156 112.219 22.5156C111.719 22.5156 111.286 22.6042 110.922 22.7812C110.557 22.9479 110.276 23.1771 110.078 23.4688C109.891 23.75 109.797 24.0625 109.797 24.4062C109.797 24.6667 109.849 24.901 109.953 25.1094C110.068 25.3073 110.25 25.4896 110.5 25.6562C110.75 25.8229 111.073 25.9792 111.469 26.125C111.875 26.2604 112.375 26.3854 112.969 26.5C114.188 26.75 115.276 27.0781 116.234 27.4844C117.193 27.8802 117.953 28.4219 118.516 29.1094C119.078 29.7865 119.359 30.6771 119.359 31.7812C119.359 32.5312 119.193 33.2188 118.859 33.8438C118.526 34.4688 118.047 35.0156 117.422 35.4844C116.797 35.9427 116.047 36.3021 115.172 36.5625C114.307 36.8125 113.333 36.9375 112.25 36.9375C110.677 36.9375 109.344 36.6562 108.25 36.0938C107.167 35.5312 106.344 34.8177 105.781 33.9531C105.229 33.0781 104.953 32.1823 104.953 31.2656H109.219C109.24 31.8802 109.396 32.375 109.688 32.75C109.99 33.125 110.37 33.3958 110.828 33.5625C111.297 33.7292 111.802 33.8125 112.344 33.8125C112.927 33.8125 113.411 33.7344 113.797 33.5781C114.182 33.4115 114.474 33.1927 114.672 32.9219C114.88 32.6406 114.984 32.3177 114.984 31.9531ZM126.781 22.9688V43.125H122.281V19.7188H126.453L126.781 22.9688ZM137.484 27.9844V28.3125C137.484 29.5417 137.339 30.6823 137.047 31.7344C136.766 32.7865 136.349 33.7031 135.797 34.4844C135.245 35.2552 134.557 35.8594 133.734 36.2969C132.922 36.724 131.984 36.9375 130.922 36.9375C129.891 36.9375 128.995 36.7292 128.234 36.3125C127.474 35.8958 126.833 35.3125 126.312 34.5625C125.802 33.8021 125.391 32.9219 125.078 31.9219C124.766 30.9219 124.526 29.849 124.359 28.7031V27.8438C124.526 26.6146 124.766 25.4896 125.078 24.4688C125.391 23.4375 125.802 22.5469 126.312 21.7969C126.833 21.0365 127.469 20.4479 128.219 20.0312C128.979 19.6146 129.87 19.4062 130.891 19.4062C131.964 19.4062 132.906 19.6094 133.719 20.0156C134.542 20.4219 135.229 21.0052 135.781 21.7656C136.344 22.526 136.766 23.4323 137.047 24.4844C137.339 25.5365 137.484 26.7031 137.484 27.9844ZM132.969 28.3125V27.9844C132.969 27.2656 132.906 26.6042 132.781 26C132.667 25.3854 132.479 24.849 132.219 24.3906C131.969 23.9323 131.635 23.5781 131.219 23.3281C130.812 23.0677 130.318 22.9375 129.734 22.9375C129.12 22.9375 128.594 23.0365 128.156 23.2344C127.729 23.4323 127.38 23.7188 127.109 24.0938C126.839 24.4688 126.635 24.9167 126.5 25.4375C126.365 25.9583 126.281 26.5469 126.25 27.2031V29.375C126.302 30.1458 126.448 30.8385 126.688 31.4531C126.927 32.0573 127.297 32.5365 127.797 32.8906C128.297 33.2448 128.953 33.4219 129.766 33.4219C130.359 33.4219 130.859 33.2917 131.266 33.0312C131.672 32.7604 132 32.3906 132.25 31.9219C132.51 31.4531 132.693 30.9115 132.797 30.2969C132.911 29.6823 132.969 29.0208 132.969 28.3125ZM145.031 19.7188V36.625H140.516V19.7188H145.031ZM140.234 15.3125C140.234 14.6562 140.464 14.1146 140.922 13.6875C141.38 13.2604 141.995 13.0469 142.766 13.0469C143.526 13.0469 144.135 13.2604 144.594 13.6875C145.062 14.1146 145.297 14.6562 145.297 15.3125C145.297 15.9688 145.062 16.5104 144.594 16.9375C144.135 17.3646 143.526 17.5781 142.766 17.5781C141.995 17.5781 141.38 17.3646 140.922 16.9375C140.464 16.5104 140.234 15.9688 140.234 15.3125ZM153.25 23.4062V36.625H148.75V19.7188H152.984L153.25 23.4062ZM158.344 19.6094L158.266 23.7812C158.047 23.75 157.781 23.724 157.469 23.7031C157.167 23.6719 156.891 23.6562 156.641 23.6562C156.005 23.6562 155.453 23.7396 154.984 23.9062C154.526 24.0625 154.141 24.2969 153.828 24.6094C153.526 24.9219 153.297 25.3021 153.141 25.75C152.995 26.1979 152.911 26.7083 152.891 27.2812L151.984 27C151.984 25.9062 152.094 24.901 152.312 23.9844C152.531 23.0573 152.849 22.25 153.266 21.5625C153.693 20.875 154.214 20.3438 154.828 19.9688C155.443 19.5938 156.146 19.4062 156.938 19.4062C157.188 19.4062 157.443 19.4271 157.703 19.4688C157.964 19.5 158.177 19.5469 158.344 19.6094ZM167.938 36.9375C166.625 36.9375 165.448 36.7292 164.406 36.3125C163.365 35.8854 162.479 35.2969 161.75 34.5469C161.031 33.7969 160.479 32.9271 160.094 31.9375C159.708 30.9375 159.516 29.875 159.516 28.75V28.125C159.516 26.8438 159.698 25.6719 160.062 24.6094C160.427 23.5469 160.948 22.625 161.625 21.8438C162.312 21.0625 163.146 20.4635 164.125 20.0469C165.104 19.6198 166.208 19.4062 167.438 19.4062C168.635 19.4062 169.698 19.6042 170.625 20C171.552 20.3958 172.328 20.9583 172.953 21.6875C173.589 22.4167 174.068 23.2917 174.391 24.3125C174.714 25.3229 174.875 26.4479 174.875 27.6875V29.5625H161.438V26.5625H170.453V26.2188C170.453 25.5938 170.339 25.0365 170.109 24.5469C169.891 24.0469 169.557 23.651 169.109 23.3594C168.661 23.0677 168.089 22.9219 167.391 22.9219C166.797 22.9219 166.286 23.0521 165.859 23.3125C165.432 23.5729 165.083 23.9375 164.812 24.4062C164.552 24.875 164.354 25.4271 164.219 26.0625C164.094 26.6875 164.031 27.375 164.031 28.125V28.75C164.031 29.4271 164.125 30.0521 164.312 30.625C164.51 31.1979 164.786 31.6927 165.141 32.1094C165.505 32.526 165.943 32.849 166.453 33.0781C166.974 33.3073 167.562 33.4219 168.219 33.4219C169.031 33.4219 169.786 33.2656 170.484 32.9531C171.193 32.6302 171.802 32.1458 172.312 31.5L174.5 33.875C174.146 34.3854 173.661 34.875 173.047 35.3438C172.443 35.8125 171.714 36.1979 170.859 36.5C170.005 36.7917 169.031 36.9375 167.938 36.9375Z" fill="#181D29"/>
<path d="M12.7366 38.25H4.40928C3.26427 38.25 2.28372 37.8342 1.46764 37.0026C0.652951 36.1696 0.245605 35.1688 0.245605 34V19.125C0.245605 16.4688 0.739694 13.9804 1.72787 11.6599C2.71744 9.34079 4.05398 7.32204 5.73749 5.60363C7.41961 3.88663 9.39736 2.52308 11.6707 1.513C13.9427 0.504333 16.3798 0 18.9821 0C21.5844 0 24.0223 0.504333 26.2956 1.513C28.5676 2.52308 30.5453 3.88663 32.2288 5.60363C33.911 7.32204 35.2468 9.34079 36.2364 11.6599C37.2246 13.9804 37.7186 16.4688 37.7186 19.125V34C37.7186 35.1688 37.3113 36.1696 36.4966 37.0026C35.6805 37.8342 34.7 38.25 33.555 38.25H25.2276V21.25H33.555V19.125C33.555 14.9812 32.1407 11.4658 29.3122 8.57863C26.4851 5.69288 23.0417 4.25 18.9821 4.25C14.9225 4.25 11.4792 5.69288 8.65206 8.57863C5.82354 11.4658 4.40928 14.9812 4.40928 19.125V21.25H12.7366V38.25ZM8.57295 25.5H4.40928V34H8.57295V25.5ZM29.3913 25.5V34H33.555V25.5H29.3913Z" fill="#FF1919"/>
</svg>
